<svg id="Capa_1" enable-background="new 0 0 512 512" height="50%" viewBox="0 0 512 512" width="50%" xmlns="http://www.w3.org/2000/svg"><g><g><g><g><path d="m264.655 478.61c-18.438-19.048-28.746-44.52-28.746-71.03v-3.685h-20.591v3.685c0 26.51-10.308 51.981-28.746 71.03l-12.885 13.312h103.854z" fill="#98b9d3"/><path d="m325.428 478.61c-18.438-19.048-28.746-44.52-28.746-71.03v-3.685c-22.34 0-42.162 0-64.524 0v3.685c0 26.51 10.308 51.981 28.746 71.03l12.885 13.312h64.524z" fill="#81a7c6"/><path d="m300.23 471.843h-141.305c-11.089 0-20.078 8.989-20.078 20.078 0 11.089 8.989 20.078 20.078 20.078h148.87l5.002-2.303v-25.283c0-6.94-5.626-12.567-12.567-12.57z" fill="#4a80aa"/><path d="m353.075 471.843h-57.851c6.943 0 12.572 5.629 12.572 12.572v27.585h45.279c11.089 0 20.078-8.989 20.078-20.078 0-11.089-8.99-20.079-20.078-20.079z" fill="#407093"/></g><g><path d="m446.737 391.614v-37.995h-425.074l-14.255 10.642v27.353c0 15.222 12.34 27.562 27.562 27.562h384.208c15.221-.002 27.559-12.341 27.559-27.562z" fill="#4a80aa"/><path d="m504.592 391.614v-27.353l-14.255-10.642h-51.102v37.995c0 15.221-12.338 27.56-27.559 27.562h65.355c15.221 0 27.561-12.34 27.561-27.562z" fill="#407093"/></g><g><g><g><g><g><path d="m446.737 99.42c0-15.222-12.34-27.561-27.562-27.561h-384.205c-15.222 0-27.562 12.34-27.562 27.561v264.841h439.329z" fill="#f2f9ff"/><g><path d="m439.235 99.42v264.841h65.358v-264.841c0-15.222-12.34-27.561-27.562-27.561h-65.358c15.222-.001 27.562 12.339 27.562 27.561z" fill="#e2f4ff"/></g></g></g></g></g></g></g></g><g><g><g><g><g><g><path d="m452.516 203.249h-173.611c-4.144 0-7.503-3.359-7.503-7.503s3.359-7.503 7.503-7.503h173.611c4.144 0 7.503 3.359 7.503 7.503s-3.359 7.503-7.503 7.503z" fill="#4a80aa"/></g><g><path d="m452.516 247.593h-173.611c-4.144 0-7.503-3.359-7.503-7.503s3.359-7.503 7.503-7.503h173.611c4.144 0 7.503 3.359 7.503 7.503s-3.359 7.503-7.503 7.503z" fill="#4a80aa"/></g><g><path d="m452.516 291.935h-173.611c-4.144 0-7.503-3.359-7.503-7.503s3.359-7.503 7.503-7.503h173.611c4.144 0 7.503 3.359 7.503 7.503 0 4.145-3.359 7.503-7.503 7.503z" fill="#4a80aa"/></g></g><g><g><path d="m213.487 258.926v-75.641c0-4.107-2.191-7.901-5.747-9.955l-65.507-37.821c-3.557-2.053-7.938-2.053-11.495 0l-65.507 37.821c-3.556 2.053-5.747 5.848-5.747 9.955v75.641c0 4.107 2.191 7.901 5.747 9.955l65.507 37.821c3.557 2.053 7.938 2.053 11.495 0l65.507-37.821c3.557-2.054 5.747-5.849 5.747-9.955z" fill="#bed8fb"/><g fill="#9dc6fb"><path d="m136.486 204.599c-4.144 0-7.503 3.359-7.503 7.503v93.585l1.755 1.013c3.557 2.053 7.938 2.053 11.495 0l1.755-1.013v-93.585c0-4.144-3.359-7.503-7.502-7.503z"/><path d="m143.686 216.948 68.261-39.41c-.992-1.719-2.429-3.181-4.207-4.207l-65.507-37.82c-3.557-2.053-7.938-2.053-11.495 0l-65.507 37.82c-1.778 1.027-3.215 2.489-4.207 4.207l68.261 39.41c4.456 2.572 9.946 2.572 14.401 0z"/></g></g></g></g></g><g><path d="m430.99 134.837c15.426-16.293 15.862-42.081.957-58.852-6.451-7.259-14.694-11.818-23.401-13.692-5.054-1.088-8.979-5.03-10.396-10.001-5.53-19.396-18.624-35.602-35.89-45.226l-4.034.731c-10.781 5.411-19.879 13.334-26.793 23.109-2.075 2.935-5.214 4.893-8.747 5.552-25.853 4.826-45.374 27.636-45.061 54.961.349 30.418 25.737 54.622 56.157 54.622h79.918c6.363-2.215 12.314-5.949 17.29-11.204z" fill="#95d6a4"/><path d="m401.077 145.811v.231h60.753c38.307 0 55.251-44.206 32.192-70.153-6.212-6.99-14.142-11.394-22.523-13.224-4.898-1.069-8.77-4.7-10.132-9.525-8.657-30.666-36.843-53.14-70.28-53.14-11.821 0-22.984 2.81-32.861 7.797 18.007 9.091 31.737 25.42 37.366 45.164 1.371 4.811 5.17 8.625 10.061 9.678 8.426 1.813 16.403 6.226 22.645 13.25 14.423 16.23 14.001 41.185-.926 56.952-7.248 7.654-16.632 11.973-26.295 12.97z" fill="#78c2a4"/><path d="m423.763 64.431-27.951-22.594c-2.751-2.223-6.682-2.223-9.433 0l-27.95 22.594c-3.222 2.605-3.723 7.33-1.118 10.552 1.482 1.834 3.651 2.786 5.839 2.786 1.656 0 3.324-.546 4.712-1.668l15.731-12.717v45.003c0 4.144 3.359 7.503 7.503 7.503s7.503-3.359 7.503-7.503v-45.002l15.731 12.717c3.222 2.604 7.946 2.104 10.551-1.119s2.105-7.946-1.118-10.552z" fill="#fdf9e2"/></g></g></g></g></svg>